# xmcd
#
# Track frame offsets:
#	150
#	44074
#	76478
#	105426
#	134794
#	153843
#
# Disc length: 2443 seconds
#
# Revision: 1
# Processed by: cddbd v1.5.2PL0 Copyright (c) Steve Scherf et al.
# Submitted via: audiograbber 1.83.01
#
DISCID=4b098906
DTITLE=Grateful Dead - 71-12-14 Hill Auditorium, Ann Arbor MI
DYEAR=1900
DGENRE=
TTITLE0=Black Peter
TTITLE1=Playing In The Band
TTITLE2=Casey Jones
TTITLE3=Ramble On Rose
TTITLE4=Mexicali Blues
TTITLE5=Big Boss Man
EXTD=
EXTT0=
EXTT1=
EXTT2=
EXTT3=
EXTT4=
EXTT5=
PLAYORDER=
